<?xml version="1.0" encoding="UTF-8" standalone="no"?>
<!DOCTYPE svg PUBLIC "-//W3C//DTD SVG 1.1//EN" "http://www.w3.org/Graphics/SVG/1.1/DTD/svg11.dtd">
<svg width="100%" height="100%" viewBox="0 0 348 304" version="1.1" xmlns="http://www.w3.org/2000/svg" xmlns:xlink="http://www.w3.org/1999/xlink" xml:space="preserve" xmlns:serif="http://www.serif.com/" style="fill-rule:evenodd;clip-rule:evenodd;stroke-linejoin:round;stroke-miterlimit:2;">
    <g transform="matrix(1,0,0,1,-4985.32,592.765)">
        <g transform="matrix(1,0,0,1,1.81899e-12,43.0162)">
            <g transform="matrix(0.816258,0,0,1,939.477,-82.5212)">
                <g transform="matrix(1,0,0,0.775715,2.27374e-13,-70.3073)">
                    <path d="M5381.88,-264.333C5381.88,-270.476 5377.14,-275.463 5371.3,-275.463L4967.15,-275.463C4961.31,-275.463 4956.57,-270.476 4956.57,-264.333L4956.57,-242.073C4956.57,-235.93 4961.31,-230.943 4967.15,-230.943L5371.3,-230.943C5377.14,-230.943 5381.88,-235.93 5381.88,-242.073L5381.88,-264.333Z" style="fill:rgb(28,20,203);"/>
                </g>
                <g transform="matrix(-5.32772e-17,-0.211581,1.02735,-2.99615e-17,5619.14,799.265)">
                    <path d="M5381.88,-264.333C5381.88,-270.476 5362.11,-275.463 5337.76,-275.463L5000.68,-275.463C4976.34,-275.463 4956.57,-270.476 4956.57,-264.333L4956.57,-242.073C4956.57,-235.93 4976.34,-230.943 5000.68,-230.943L5337.76,-230.943C5362.11,-230.943 5381.88,-235.93 5381.88,-242.073L5381.88,-264.333Z" style="fill:rgb(28,20,203);"/>
                </g>
                <g transform="matrix(-5.32772e-17,-0.211581,1.02735,-2.99615e-17,5239.57,799.265)">
                    <path d="M5381.88,-264.333C5381.88,-270.476 5362.11,-275.463 5337.76,-275.463L5000.68,-275.463C4976.34,-275.463 4956.57,-270.476 4956.57,-264.333L4956.57,-242.073C4956.57,-235.93 4976.34,-230.943 5000.68,-230.943L5337.76,-230.943C5362.11,-230.943 5381.88,-235.93 5381.88,-242.073L5381.88,-264.333Z" style="fill:rgb(28,20,203);"/>
                </g>
            </g>
            <g transform="matrix(1,0,0,1,-0.0119924,1.13666)">
                <g transform="matrix(0.658981,0,0,0.802809,1766.27,-129.391)">
                    <path d="M5212.25,-628.304C5212.25,-630.448 5210.13,-632.189 5207.51,-632.189L5089.07,-632.189C5086.45,-632.189 5084.33,-630.448 5084.33,-628.304L5084.33,-424.501C5084.33,-422.357 5086.45,-420.616 5089.07,-420.616L5207.51,-420.616C5210.13,-420.616 5212.25,-422.357 5212.25,-424.501L5212.25,-628.304Z" style="fill:rgb(28,20,203);"/>
                </g>
                <g transform="matrix(0.658981,0,0,-0.658981,1759.28,-736.01)">
                    <path d="M5154.75,-507.595C5155.81,-508.764 5157.32,-509.43 5158.9,-509.43C5160.48,-509.43 5161.99,-508.764 5163.05,-507.595C5180.65,-488.267 5249.26,-412.898 5273.45,-386.314C5274.94,-384.678 5275.33,-382.318 5274.43,-380.296C5273.54,-378.273 5271.54,-376.968 5269.32,-376.968C5227.06,-376.968 5090.9,-376.968 5048.54,-376.968C5046.32,-376.968 5044.3,-378.279 5043.4,-380.313C5042.51,-382.346 5042.89,-384.718 5044.39,-386.362C5068.63,-412.989 5137.16,-488.279 5154.75,-507.595Z" style="fill:rgb(28,20,203);"/>
                </g>
            </g>
        </g>
    </g>
</svg>
