<?xml version="1.0" encoding="UTF-8" standalone="no"?>
<svg
   xmlns:dc="http://purl.org/dc/elements/1.1/"
   xmlns:cc="http://creativecommons.org/ns#"
   xmlns:rdf="http://www.w3.org/1999/02/22-rdf-syntax-ns#"
   xmlns:svg="http://www.w3.org/2000/svg"
   xmlns="http://www.w3.org/2000/svg"
   xmlns:sodipodi="http://sodipodi.sourceforge.net/DTD/sodipodi-0.dtd"
   xmlns:inkscape="http://www.inkscape.org/namespaces/inkscape"
   aria-hidden="true"
   focusable="false"
   data-prefix="fas"
   data-icon="home"
   class="svg-inline--fa fa-home fa-w-18"
   role="img"
   viewBox="0 0 576 512"
   version="1.1"
   id="svg4"
   sodipodi:docname="home-link.svg"
   inkscape:version="0.92.3 (2405546, 2018-03-11)">
  <metadata
     id="metadata10">
    <rdf:RDF>
      <cc:Work
         rdf:about="">
        <dc:format>image/svg+xml</dc:format>
        <dc:type
           rdf:resource="http://purl.org/dc/dcmitype/StillImage" />
      </cc:Work>
    </rdf:RDF>
  </metadata>
  <defs
     id="defs8" />
  <sodipodi:namedview
     pagecolor="#ffffff"
     bordercolor="#666666"
     borderopacity="1"
     objecttolerance="10"
     gridtolerance="10"
     guidetolerance="10"
     inkscape:pageopacity="0"
     inkscape:pageshadow="2"
     inkscape:window-width="1920"
     inkscape:window-height="1029"
     id="namedview6"
     showgrid="false"
     inkscape:zoom="1.3037281"
     inkscape:cx="162.71242"
     inkscape:cy="196.04089"
     inkscape:window-x="0"
     inkscape:window-y="27"
     inkscape:window-maximized="1"
     inkscape:current-layer="svg4" />
  <path
     d="M 280.37,107.26 96,259.11 V 464 c 0,8.83656 7.16344,16 16,16 249.92616,-0.9078 180.15847,-0.47555 352,0 8.83656,0 16,-7.16344 16,-16 V 259 L 295.67,107.26 c -4.46504,-3.59905 -10.83496,-3.59905 -15.3,0 z M 571.6,251.47 488,182.56 V 44.05 c 0,-6.627417 -5.37258,-12 -12,-12 h -56 c -6.62742,0 -12,5.372583 -12,12 v 72.61 L 318.47,43 c -17.71927,-14.581155 -43.28073,-14.581155 -61,0 L 4.34,251.47 c -5.11050552,4.22399 -5.8270027,11.79199 -1.6,16.9 l 25.5,31 c 6.140596,0 67.553053,1.63 74.13034,1.63 L 280.37,107.26 c 4.46504,-3.59905 10.83496,-3.59905 15.3,0 L 479.10339,301 c 6.49698,0 68.69661,-1.6 68.69661,-1.6 l 25.5,-31 c 4.22377,-5.13906 3.46121,-12.73332 -1.7,-16.93 z"
     id="path2"
     inkscape:connector-curvature="0"
     style="fill:#81f5ff;fill-opacity:1"
     sodipodi:nodetypes="ccsccscccccssssccccccccccccc" />
</svg>
