<svg version="1" xmlns="http://www.w3.org/2000/svg" width="445.333" height="445.333" viewBox="0 0 334.000000 334.000000"><path d="M152.8.5c-.2.2-2.8.6-5.8.9-3 .4-6.7.9-8.2 1.1-1.6.3-3.8.7-5 .9-10.8 1.9-28.5 8-40.1 13.7C42.3 42.9 8.2 90.8 1.3 147.2c-1.2 9.8-.8 35.4.6 44.3 9.2 55.8 41.9 100.4 91.8 125.4 22.3 11.1 45.9 16.5 72.3 16.5 28.6.1 51.1-5 74.3-16.5 48-24 80.3-66.6 90.8-119.4 3.3-16.5 3.2-44-.1-61.6-9.6-50.7-42.9-94.7-89.3-118-14.1-7.1-34.1-13.7-47-15.4-2.9-.4-6.1-.9-7.2-1.2-2.2-.5-34.2-1.2-34.7-.8zM167 8.4c0 .2-2.8 6.2-6.3 13.2-3.5 7.1-9.5 19.4-13.3 27.3-3.8 7.9-9.1 19-11.9 24.5l-5 10.1-39.5.1c-21.7 0-39.8-.1-40.2-.3-1.3-.7 7-15.3 14.8-25.9 20.6-28.1 52.6-45.6 87.9-48.1 4.4-.3 8.1-.6 8.2-.7.5-.4 5.3-.5 5.3-.2zm21.5 1.7c32 4.4 60.9 21.4 79.7 47 5.6 7.6 13.1 19.8 14.7 24.1l.9 2.3H203.5l-4.2-8.5c-12.3-24.7-30.4-62.4-30.9-64.4-.5-2.3-.4-2.3 5.8-2 3.5.3 9.9.9 14.3 1.5zm-13.4 69.4c5.9 12 8.3 22.8 7.6 34-.3 4.9-.9 10.6-1.2 12.5-.4 1.9-1 5.4-1.5 7.7-.4 2.4-.5 4.3-.3 4.3.3 0 1.7-.9 3.2-1.9 8.7-6.2 22.2-8.2 29.6-4.4 13.7 7.2 19.8 26.3 12.8 40.2-3.7 7.3-5.4 7.8-4.6 1.3.8-7.4-1.9-15-7.3-20.5-5.5-5.6-9.6-6.6-15.7-3.9-11.4 5.1-19.4 17.9-23.6 37.7-3 14.4-3.5 22.8-1.5 27.1 3.1 6.5 11.2 9.7 18.7 7.4 4.8-1.4 6.8-3 11-8.5l2.9-4-.7 3.5c-3.3 16.2-15 24.6-28.2 20.1l-4.8-1.6v7.5c.1 8.1-.6 14.2-2.5 23.5-1.1 5.2-1.4 5.7-2.5 4.2-2-2.8-3.8-14.2-3.9-25.2l-.1-10-4.9 1.6c-10.9 3.7-20.6-1.1-25.7-12.6-2.1-4.9-3.4-12.1-1.6-9.1 6.7 10.8 16.4 14.3 25.2 9.1 5.5-3.1 7.8-7.9 7.1-14.3-.3-2.6-.8-7.4-1.2-10.7-.8-8.3-4.9-21.8-8.7-28.8-6.1-11.6-16.7-19.5-24-18.2-4.3.8-9.8 5.8-12.8 11.5-1.8 3.5-2.3 6.1-2.4 11.7 0 4-.3 7.3-.7 7.3-.4 0-1.9-1.8-3.4-3.9-4.8-7.4-4.7-20.8.5-30.8 2.7-5.3 10.1-11.8 14.9-13 7.5-1.9 19.1.6 26.3 5.8 1.5 1 2.9 1.9 3.2 1.9.2 0-.3-3.5-1.1-7.8-1.6-8.3-2.1-25.2-1-31.7 1.6-9.2 8.9-25.6 13-29.5l2.2-2.1 1.9 2.3c1 1.3 3.6 5.9 5.8 10.3zM58 100.2c4.1 8.4 12.9 26.7 19.7 40.7C84.5 154.8 90 166.5 90 167c0 .7-10.9 23.5-29.2 61l-11 22.5-3.5-9c-6.1-15.9-10.4-35.4-12-55-1.3-16-.5-41.1 1.7-54.5.5-3 1.2-7.1 1.5-9 .3-1.9 1.1-5.3 1.7-7.5.6-2.2 1.3-4.9 1.5-6 .8-4.4 8.3-24.5 9.2-24.5.4 0 4.1 6.9 8.1 15.2zm227.5-13.5c3.2 8.1 7.5 21.6 9.1 28.3 4.2 18.6 5.6 31.4 5.8 52.5.1 7.7-.2 16.5-.5 19.5-.4 3-1 8-1.4 11-.9 7.8-4.1 23-6.5 30.8-2.9 9.4-7.2 20.2-8 20.2-.5 0-1.7-1.9-2.8-4.3-2-4.2-8.2-17-27.1-56.1-5.6-11.5-10.1-21.2-10.1-21.6 0-.4 4.7-10.4 10.4-22.1 17.3-35.8 25.7-53.2 27.2-56.7 1.6-3.6 2.8-4.1 3.9-1.5zM134.2 258c4.2 8.3 25 51.3 29.2 60.2 1.5 3.2 3.1 6 3.5 6.2.4.3 1.6-1.4 2.6-3.7 1-2.3 7-14.8 13.3-27.7 6.3-12.9 13.4-27.7 15.8-32.8 2.3-5 4.6-9.3 5.1-9.3 2.1-.3 78.9-.5 79.5-.2.4.2-.9 3.4-2.8 7.1-15.2 28.7-37.9 49.2-66.3 59.9-27.7 10.4-66.5 10.3-94.9-.3-20.1-7.4-39.6-22-52.9-39.5-4.8-6.3-16.4-25.9-15.8-26.8.2-.3 18.2-.6 40.2-.6h39.8l3.7 7.5z"/></svg>