<svg version="1" xmlns="http://www.w3.org/2000/svg" width="816" height="816" viewBox="0 0 612.000000 612.000000"><path d="M35.7 3.4C25.3 7.1 18.2 15.9 17.1 26.2c-.1.4-1.9 1.7-4 2.7-5.1 2.7-10.6 9.2-12 14.4C.2 46.4 0 117 .2 321l.3 273.5 2.4 4c2.7 4.6 9 9.7 14 11.4 2.5.8 74.2 1.1 276.5 1.1 270.1-.1 273.1-.1 277.1-2.1 5.3-2.6 9.9-7.2 12-12 1.1-2.3 2.5-3.9 3.5-3.9 4.7 0 12.9-5.2 16.9-10.6 5.8-7.9 5.5 1.8 5.5-177.2.1-156.4.2-165.4 1.9-166.3 1.5-.9 1.7-3.3 1.7-27.4 0-24.3-.1-26.4-1.7-26.7-1.7-.3-1.8-5-1.9-79.8-.1-57.8-.4-80.6-1.3-83.7-1.7-6.1-6.9-12.4-13.1-15.8l-5.5-3L314 2.3C84.7 2.1 38.9 2.3 35.7 3.4zm555.2 8.2c8 4.3 10.3 8.9 10.6 21.2.1 5.3 0 10.2-.2 10.8-.2.6-3.6 1.1-8.4 1.1l-8 .1-2-4.1c-2.8-5.5-6.5-9.4-11.4-12l-4-2.2-271.4-.2c-149.3-.1-271.6-.5-271.8-.7-.3-.3 0-2 .7-4 1.9-6 9.4-11.5 17.4-12.8 1.1-.2 123.8-.3 272.6-.2l270.7.1 5.2 2.9zM601.5 65v13.5l-8.2.1H585V65.5c0-7.2.3-13.4.6-13.8.3-.3 4-.5 8.2-.4l7.7.2V65zm-.3 21.4c.4 3.3.3 75.6-.2 75.7-.9.1-13.5.1-14.7 0-1-.1-1.3-8.4-1.3-37.9 0-20.8.2-38.1.5-38.4 1.1-1.1 15.5-.6 15.7.6zm.4 94.3l-.1 11.7-5 3.8c-3.4 2.6-6 3.8-8.2 3.8H585v-31H601.7l-.1 11.7zm0 82.8V281H585V258.3l7.8-6.1c4.2-3.4 7.9-6.1 8.2-6.2.3 0 .6 7.9.6 17.5zm-.9 24.9c.4.4.8 8.2.9 17.2l.1 16.4-2.9.1H586c-.6-.1-1-6.6-1-17.4v-17.2h7.5c4 .1 7.8.4 8.2.9zm.9 57.6c0 14.7-.2 17-1.5 17.1-.9.1-4.5.2-8.1.2l-6.5.1-.3-17.2-.2-17.2h16.6v17zm0 42v17.6l-8.3.2-8.3.1v-36l8.3.3 8.2.3.1 17.5zm0 60v35.5H585v-16.6c0-15.8.1-16.7 2-17.2 1.2-.3 2-1.4 2-2.6 0-1.1-.9-2.5-2-3.1-1.9-1-2-2.1-2-16.3v-15.3l8.3.1h8.2l.1 35.5zm0 59c.1 9.3-.2 17.1-.5 17.1-.3.1-4.1.2-8.3.3l-7.8.2V490h16.6v17zm0 44.2c-.1 19.7-.2 20.4-2.6 24.8-2.6 4.5-9.1 9.9-12.2 10-1.6 0-1.8-1.2-1.8-10.4v-10.5l5.1.1c3.3 0 5.5-.5 6-1.4 2-3.2 0-5-6-5.1l-5.1-.2V531H601.7l-.1 20.2z"/></svg>