<svg version="1" xmlns="http://www.w3.org/2000/svg" width="592" height="592" viewBox="0 0 444.000000 444.000000"><path d="M215.5.7c-1.8.4-8.1 4.7-9.5 6.3-.3.3-4.8 4.1-10 8.5-8.5 7.1-18.7 15.8-27.5 23.4-1.7 1.4-5.7 4.8-9 7.6-3.3 2.7-6.2 5.2-6.5 5.5-.3.3-4.5 3.9-9.5 8l-9 7.5-21.5.1c-23.5.1-24.8.4-28 5.7-1.8 2.9-2 5.1-2 20.9 0 14.2-.3 17.9-1.4 18.5-.8.4-3.8 2.9-6.8 5.4C71.9 120.7 63 128.2 55 135 9 173.8 7.7 174.9 5.6 179.5c-1.5 3-1.6 15.1-1.4 127.7l.3 124.4 2.4 3.6c1.3 1.9 4 4.6 5.9 5.9l3.6 2.4h411.2l3.6-2.4c1.9-1.3 4.6-4 5.9-5.9l2.4-3.6.3-124c.3-138.7.8-129.1-6.9-136-2.1-2-4.6-3.6-5.4-3.6-1.5 0-9.5-6.5-33.5-27-7.5-6.3-15.7-13.3-18.4-15.5-2.7-2.2-6.5-5.5-8.5-7.2-2-1.8-5.7-5-8.3-7l-4.7-3.8L354 92c0-13.5-.3-15.9-2-18.7-3.2-5.3-4.7-5.6-25.5-5.7l-19.1-.1-4.9-4c-2.8-2.2-5.6-4.6-6.4-5.3-.7-.7-6.8-5.9-13.5-11.5C276 41.2 270.3 36.3 270 36c-.3-.3-3.2-2.7-6.5-5.5-3.3-2.7-6.2-5.2-6.5-5.5-.3-.3-3.2-2.8-6.5-5.5-3.3-2.8-6.2-5.2-6.5-5.5-1.8-1.8-12-10-14.2-11.4C227.1.8 219-.3 215.5.7z"/></svg>