<svg version="1" xmlns="http://www.w3.org/2000/svg" width="545.333" height="545.333" viewBox="0 0 409.000000 409.000000"><path d="M216.5.9c-.3.5-1.9.9-3.6.9-5.7-.2-6.8 4.8-1.4 6.5 1.7.5 3.7 1.6 4.6 2.3.8.8 2.7 1.4 4.1 1.4 1.4 0 2.9.7 3.2 1.6.4 1.1 1.5 1.4 3.5 1.1 1.9-.3 3.5 0 4.3 1 1.2 1.4 6.4 1.4 14.3-.2 1.1-.2 2.6-.4 3.3-.4 2.4-.2 2.5-3.1.1-5.1-6.7-5.5-13-9.3-14-8.3-.7.7-2 .6-4.1-.5-2.2-1-3.6-1.2-4.7-.5-.9.6-2.5.7-3.6.2-2.8-1.1-5.3-1.1-6 0zM147.3 4c-3.9 1-8.6 2.6-10.3 3.5-4.3 2.2-12.1 9.5-11.4 10.6.8 1.4 11.4 1 17.9-.6 3.2-.9 8-2.8 10.7-4.2 5.4-2.9 13.2-9.3 12.4-10-1.4-1.4-12.8-1-19.3.7zM179.7 4c-5.8 1.8-8.6 3.3-12.3 6.6-2.8 2.6-5.5 6.9-4.8 7.7 1.2 1.2 13.9-.5 21.5-2.9 7.9-2.5 19.2-9.1 18.6-10.9-.9-2.7-15-3.1-23-.5zM259.6 10.5c-.6 1.5 5.6 6.8 9.4 8 1 .3 2.1 1.6 2.4 2.9.4 1.6 2.1 3 5.6 4.4 3.2 1.3 4.8 2.6 4.5 3.4-.7 1.9.5 3.3 5.3 5.7 2.4 1.2 4.5 3 4.8 3.9 1.2 3.8 2.3 4.6 9.9 7.3 11 3.9 11.8 3.8 11-.9-.8-5.3-3.5-14.5-4.7-16-.6-.6-2.1-1.2-3.4-1.2-1.5 0-3.5-1.5-6-4.6-3.1-3.7-4.2-4.5-6.3-4.1-1.9.4-3.5-.3-6.3-2.9-2.7-2.4-4.8-3.4-7.1-3.4-1.7 0-5.6-.9-8.5-2-6.2-2.4-9.8-2.5-10.6-.5zM105.5 20.8c-2.8 1-7.3 3-10 4.6-7.1 4.1-17.7 15.2-20.8 21.8-2.5 5.2-3.2 9.8-1.5 9.8 2.2 0 11.1-4.1 16-7.3 8.4-5.6 23.3-21.2 28.2-29.5 1.1-1.8-5.9-1.5-11.9.6zM141 23.1c-14.4 2-27.5 10.4-33.1 21.1-3.1 6.1-2.7 6.7 3.9 6.2 9.7-.7 18.6-4.5 28.2-11.9 6.1-4.7 15.6-14.2 14.9-14.8-1.1-1-8.9-1.3-13.9-.6zM243.9 24.2c-.9 1.6-.5 2.4 2.4 5.1 1.8 1.8 3.7 4 4 5 .4.9 2 2 3.6 2.3 2.1.4 3.1 1.3 3.3 2.8.2 1.4 1.4 2.5 3.7 3.2 1.9.6 3.8 2.1 4.2 3.2.7 2 1.6 2.2 8.4 2.1 4.1-.1 7.7-.5 8-.9.8-1.3-3.4-13.3-5.2-14.7-.8-.6-2.1-.9-2.8-.7-.7.3-2.6-.9-4.3-2.6-2.5-2.4-3.5-2.9-4.9-2.2-1.3.8-2.4.4-4.6-1.4-1.8-1.5-3.6-2.2-4.7-1.9-1 .3-3.6.1-5.9-.4-3.6-.8-4.3-.7-5.2 1.1zM197.4 45.7c-2.6 4.9-5.7 10.6-6.9 12.8-1.2 2.2-4 7.4-6.2 11.5s-7.7 14.4-12.2 22.7l-8.2 15.3h-38.5c-27.7 0-38.4.3-38.4 1.1 0 .9 6.8 13.6 20 37.4 13.2 23.7 18.1 33.7 17.3 34.8-.6.6-3.6 6.1-6.8 12.2-3.2 6-7.1 13.2-8.7 15.8-1.5 2.6-2.8 4.9-2.8 5.1 0 .2-1.9 3.9-4.3 8.2-9.1 16.6-14.7 27.2-14.7 28.2 0 .6 14.5.9 38.5.9 21.2 0 38.7.2 38.9.4.4.4 10.1 18.2 16.6 30.4 2.4 4.4 5.3 9.8 6.5 12 1.2 2.2 3.9 7.1 5.9 10.8 2 3.7 4.5 8.2 5.5 10 1 1.8 2.3 4.3 3 5.6 1.3 2.3 1.4 2.2 5-4.5 6.5-12.1 11.7-21.6 16.9-31.4 2.8-5.2 8-14.9 11.6-21.5l6.5-12 37.3-.2c20.5-.1 37.9-.3 38.6-.3.9 0 0-2.4-2.6-7.3-2.2-3.9-5.9-10.8-8.2-15.2-2.4-4.4-6.5-11.9-9.1-16.8-2.7-4.8-4.9-8.8-4.9-9 0-.2-2.7-5.2-6-11.1-3.3-5.9-6-11.2-6-11.8 0-.9 13.3-27 15-29.3.4-.6 2.9-5.1 5.5-10 11.4-21.5 13.9-26.2 15.7-29.3l2-3.2-2.9-.1c-1.5-.1-19-.1-38.8 0l-36 .1-3.4-6.2c-1.8-3.5-7.6-14.2-12.9-23.8-5.2-9.6-11.1-20.4-13-24-5.4-10.1-9.3-17-9.7-17-.2 0-2.5 3.9-5.1 8.7zm8.2 46.5c.3 1.2 1.8 4.2 3.3 6.7 1.5 2.5 5.3 9.3 8.3 15.1 10.5 19.6 10.1 19 12.8 19.1 1.4 0 12.5 0 24.8.1 12.2 0 22.2.4 22.2.9 0 .4-1.1 2.8-2.4 5.1-4.2 7.8-9.2 17.2-15.5 29l-6.2 11.7 5.4 9.8c3 5.4 7.1 12.8 9.1 16.5 2 3.8 5.2 9.7 7.1 13.3l3.6 6.5-25.2.2-25.1.3-5.7 10.5c-3.2 5.8-8.4 15.5-11.7 21.7-3.2 6.1-6.3 11.2-6.8 11.3-.5.1-2.7-3.1-4.8-7.2-3.9-7.2-13.8-25.3-18.5-33.6l-2.4-4.2h-24.4c-13.5 0-24.5-.2-24.5-.4 0-.3 1.3-2.9 2.9-5.8 1.6-2.9 7-12.9 12-22.2l9.2-16.9-12.3-22.5c-6.8-12.4-12.4-22.8-12.6-23.1-.1-.3 11-.5 24.7-.4l24.9.1 1.4-2.6c.7-1.5 6.2-11.8 12.3-22.9 11.1-20.5 12.3-21.8 14.1-16.1z"/><path d="M200 122.1c-7 8.6-11.1 22.8-7.8 26.7 3.4 3.9 6.4 16.7 7 29.4.2 4.7.3 4.8 3.3 4.8h3.2l.6-8.4c.7-10.5 3.1-19.6 6.4-24.9 2.1-3.4 2.4-4.8 1.9-8.6-.8-5.7-5.6-15.8-9.3-19.3l-2.8-2.7-2.5 3zM169.9 152.6c-4 1.6-6.4 5.1-7.4 10.8-.8 3.8-.7 3.9 1.6 3.2 5.3-1.5 12.8-1.8 16.3-.6 2 .6 4.7 2.6 6 4.3 2.3 3.1 2.7 4.2 4 9.9.6 2.8 3.5 4 3.7 1.5.3-3.5-.4-8.8-1.8-13.8-3.2-12-13.4-18.9-22.4-15.3zM229.5 151.7c-1.1.2-3 .6-4.2.9-3.2.6-8.1 5.8-10.3 10.7-2 4.4-2.8 8.1-3.5 15.4-.4 3.7-.2 4.3 1.4 4.3 1.4 0 2.1-1 2.6-3.8.8-5.2 3.8-9.8 7.7-12.3 2.7-1.6 4.4-1.9 9.3-1.5 3.3.2 7.2.8 8.7 1.1 2.7.7 2.8.6 2.2-2.6-1.7-8.5-7.4-13.6-13.9-12.2zM191.8 188.7c-1.1.3-1.8 1.4-1.8 2.8 0 2.7 2.2 3.3 12.5 3.3 11.2 0 13.5-.6 13.5-3.4 0-1.6-.6-2.4-1.7-2.5-5.8-.4-21.1-.6-22.5-.2zM190.5 202.9c-1.4 5.5-6.5 7.8-11.6 5-1.8-.9-1.9-.8-1.3 1.8 2.4 10.5 11.2 11.8 14.8 2.1 2.3-6.4 2.5-11 .4-11.3-1-.2-1.9.6-2.3 2.4zM199.8 202.3c-.8 1.3-1.3 5.7-1.3 10.8 0 7.1.3 9.1 1.9 10.8 2.6 2.8 3.3 2.7 5.6-1.2 3.6-5.9 1.7-21.7-2.7-22.3-1.5-.3-2.7.4-3.5 1.9zM211.8 200.6c-1 .9.3 7.7 2.2 12.2 2.3 5.2 6.1 7.1 9.7 4.7 2.3-1.5 3.1-2.9 4.8-8.3.6-2.1.5-2.3-1.3-1.3-5.1 2.7-9.9.7-12.1-5.2-1-2.6-2.1-3.3-3.3-2.1zM320.6 48.9c-1 1.6.3 5.2 3.3 9.3 2.2 3 2.9 4.8 2.5 6.8-.5 2.3.1 3.3 4 6.6 3 2.5 4.3 4.1 3.6 4.8-1.9 1.9-1 4.2 2.9 8 3.3 3.3 3.9 4.3 3.4 7-.4 3-.1 3.3 8.3 8.4 8.7 5.3 11.5 6 11.9 3.2.2-.8.7-3.3 1.3-5.5 2.8-10.7 2.2-15.2-2.3-15.9-1.4-.2-2.2-1.6-3.1-5.5-1.3-6.1-2.5-7.5-5.9-7.6-1.9 0-3-1.1-5.2-5.5-2.3-4.6-3.3-5.6-5.8-5.8-1.8-.2-4.8-2.1-7.7-4.8-3.4-3.2-5.6-4.4-7.7-4.4-1.6 0-3.2.4-3.5.9zM284.7 52.1c-2.7 1.5-2 4.8 1.7 8.3 1.8 1.7 3.6 4.3 4 5.8.4 1.9 1.6 3 4.1 3.9 2.4.9 3.5 1.9 3.5 3.4 0 3 1.1 4.1 5.3 5.5 2.9.9 3.8 1.6 3.4 3-.7 2.9.5 3.8 6.3 4.4 3 .3 7.4.9 9.8 1.2l4.2.6v-3.9c0-4.6-2.4-13.9-4.1-15.9-.7-.9-2.2-1.3-3.3-1.1-1.6.4-2.9-.5-5.1-3.6-3.1-4.2-5-5.1-7.1-3.5-.8.6-2.1-.3-3.7-2.4-2.1-2.6-3.4-3.3-6.4-3.4-2.1 0-5.4-.8-7.3-1.7-2.5-1.1-4.1-1.2-5.3-.6zM55.8 59.9C45.8 70.6 39 87 39 100.5c0 6.9 1.6 13.5 3.2 13.5 2.4 0 11-10.5 14.3-17.4 1.9-3.9 4.1-10.2 5-13.9 2.7-11.6 3-28.7.5-28.7-.4 0-3.2 2.6-6.2 5.9zM94 59.9C84 63 74.2 70.8 70 79.1 67.7 83.5 66 96 67.6 96c2.9-.1 10.5-2.5 14.9-4.6 10.8-5.5 17.9-13.6 22.4-25.7 1.1-3.2 2.1-6 2.1-6.2 0-.8-10.3-.4-13 .4zM322.1 96.9c-1.2 2.2-.7 5.5 1.4 8.7 1.2 1.9 1.3 2.9.4 4.6-1 1.9-.8 2.5 2.4 5.2 3 2.7 3.4 3.3 2.1 4.4-2.4 2.1-1.7 3.5 3.3 7 2.8 2 3.1 2.6 2 4.2-1.6 2.7-.1 4 10.3 8.4 6.8 2.9 8.7 3.4 9.7 2.4 1.9-2 5.2-17.3 4.1-19.2-.5-.9-2-1.6-3.3-1.6-2 0-2.5-.5-2.5-2.4 0-1.2-.5-3.7-1.1-5.5-.9-2.7-1.6-3.1-4.5-3.1s-3.4-.4-3.4-2.3c0-3.6-2.9-7-5.5-6.5-1.6.3-3.2-.5-5.5-2.9-3.8-3.8-8.3-4.5-9.9-1.4zM71.7 103.1c-10.3 2.4-19.9 10.3-24.7 20.3-3.3 7-4.2 13-2.9 20.1 1.4 7.4 2.5 8.1 8.3 5 14.6-7.8 24.2-21.1 25-34.9.4-5.7-.3-11.7-1.3-11.5-.3.1-2.3.5-4.4 1zM367.9 109.2c-.7 1.3-.9 4.1-.5 7.5.5 4.1.3 5.5-.8 5.9-2.6 1-2.6 4.7-.1 9 2.4 4.1 2.4 4.2.5 4.7-3.1.8-3.5 3.5-1.2 8.3 2.2 4.4 2.2 4.4.2 6.4-1.1 1.1-2 2.4-2 2.9 0 1 2.4 4.1 7.9 10.1 2.2 2.5 4.1 4.8 4.1 5.2 0 .5.8.8 1.8.8 2.4 0 14.2-15.5 14.2-18.7 0-1.6-.7-2.7-2-3-1.6-.4-1.8-1.1-1.3-3.2.6-2.5 1.8-6.1 2.3-7.1.8-1.3-2.3-5-4.2-5-1.9 0-2-.4-1.3-5.6.7-5.9-.3-8.4-3.5-8.4-1.2 0-2.1-1-2.5-2.8-1.1-5.4-4.2-9.2-7.5-9.2-2 0-3.3.7-4.1 2.2zM25 116.2c-7.6 13.2-9.4 32.7-4.4 48.6 1.8 5.6 5.1 11.3 7 11.9 1.4.5 6.8-9.7 8.4-15.7 1.7-6.2 1.4-22.3-.5-30.6-1.9-8.8-5.6-19.4-6.7-19.4-.4 0-2.1 2.4-3.8 5.2zM341.1 149.6c-2.1 1.5-2.3 2.2-1.8 6.5.4 3.5.2 5.1-.9 5.9-2.1 1.8-1.7 3.8 1.2 7.3 1.9 2.3 2.3 3.2 1.3 3.6-1.4.4-2.9 2.1-2.9 3.3 0 .3 1.2 2.1 2.7 3.8 2.2 2.7 2.5 3.5 1.5 5.1-1.8 2.8-1.5 4.2 1.5 6.4 1.5 1.1 5.2 4.1 8.4 6.8 6.6 5.5 6.1 5.6 12.8-4.6 4.5-7 4.9-9.6 1.5-11.1-1.9-.9-2.1-1.6-1.6-6.8l.4-5.8-3.1-.6c-2.8-.6-3.1-1-3.1-4.4 0-5.3-.8-7-3.5-7-1.7 0-3-1.1-4.6-3.9-1.2-2.1-3.2-4.4-4.6-5-2.9-1.4-2.4-1.4-5.2.5zM51.7 158.1c-6.1 4-10.4 9.1-13.6 15.9-2.2 4.6-2.6 6.9-2.6 14.5s.4 9.8 2.4 13.8c4.5 8.6 5 8.7 11.8 1.3 9.5-10.4 14.5-22.6 13.8-33.7-.5-6.7-3.7-14.9-5.8-14.9-.7 0-3.4 1.4-6 3.1zM384.7 175.8c-.9.9-2.1 3.8-2.8 6.3-1 3.6-1.8 4.8-4.2 5.7-2.9 1.1-2.9 1.3-2.5 6.7.4 5.2.3 5.5-1.8 5.5-3.2 0-4.4 2.8-3.8 8.4.5 3.4.3 4.6-.7 4.6-.7 0-2 .7-3 1.6-1.6 1.5-1.5 2.1 1.7 11.2 1.9 5.3 3.4 9.8 3.4 9.9 0 1.8 19.8-10 20.7-12.4.3-.8 0-2.5-.7-3.8-1.1-2.1-.9-2.8 2.4-7 2.9-3.9 3.4-5.1 2.5-6.7-.6-1-1.6-2.1-2.4-2.4-1-.4-.7-1.6 1.5-5.1 2.9-4.5 3-7 .3-8.6-.8-.5-1.3-2.9-1.3-6.6 0-4.3-.5-6.2-1.8-7.4-2.4-2.2-5.5-2.2-7.5.1zM13.4 181.2c-2.4 7.6-2.8 26.6-.8 34.2 2.3 8.8 5.8 15 10.6 18.9 4.6 3.7 10.7 7.1 11.4 6.4 1-1 2.1-11.5 1.8-17.4-.6-11.8-5.8-26.1-13.9-38.3-6.6-10-7.1-10.2-9.1-3.8zM342.1 205.6c-1.6 1.2-2.1 2.5-2.1 6 0 3.1-.4 4.4-1.4 4.4-3 0-3.5 2.4-1.6 6.8 1.9 4.1 1.9 4.2 0 4.2-2.7 0-3.4 3.6-1.5 7.6 1.6 3.4 1.6 3.5-.6 5.3l-2.2 1.8 5.4 8.7c2.9 4.9 5.9 9.1 6.6 9.3 1.8.7 14.1-9.7 14.9-12.6.5-1.7.2-2.8-1.1-3.7-1.7-1.3-1.8-1.5-.1-5.3 2.1-4.6 1.8-7.3-1-8.5-2.1-.9-2.1-1.1-.7-5.3 1.6-4.5.7-7.3-2.2-7.3-.7 0-1.9-2.3-2.7-5.2-1.2-4.2-2-5.4-4.5-6.4-2.5-1.1-3.4-1-5.2.2zM51.3 213.2c-12.8 13.5-12.4 36.5.9 49.6 2.3 2.3 4.5 4.2 4.9 4.2.9 0 4.3-8.1 6.3-15 4.6-15.4 2-32.4-6.1-40.5-2-2.1-2.5-1.9-6 1.7zM376 245.6c-1.4.9-3.7 3.3-5.2 5.5-1.8 2.6-3.3 3.7-4.3 3.3-2.3-.9-4.2 1.2-5.4 6-.8 3.3-1.5 4.4-2.8 4.1-3.2-.5-5.1 1.4-6.3 6.4-.9 3.9-1.6 4.9-2.9 4.6-3.2-.6-4.4 1.2-4.7 7.2-.2 3.2-.6 7.7-.8 10-.5 4.6.8 5.9 4.7 4.4 1.2-.5 2.4-.9 2.7-.9.3 0 2.5-.6 5-1.3 5.5-1.6 5.8-1.6 6.9-1.8 2.1-.3 4.2-3.5 3.7-5.5-.4-1.7.4-2.7 3.9-5 4.8-2.9 6.9-7.1 4.4-8.6-1-.7-.1-2 3.5-5.4 4.6-4.2 4.7-4.6 3.3-6.6-1.4-2-1.4-2.6.3-6.6 2.1-4.8 1.9-8.3-.7-10.2-2.1-1.5-2.2-1.5-5.3.4zM22.9 247.2c-.1.2-.3 2.5-.5 5.3-.8 11.1 5 23 17.1 35 7.7 7.7 11.8 10.5 17.7 11.9 2.7.6 2.7.6 2.1-4.1-1.3-10.6-7.8-24.2-16-33.3-5.8-6.5-19.6-16.5-20.4-14.8zM328.3 260.2c-.6.7-1.6 3-2.3 5.1-.6 2-1.6 3.5-2.1 3.1-2.1-1.2-3.7 1.7-3.4 6.2.2 3-.1 4.3-.9 4.1-2.8-1-4.2 1.2-4.1 6.2.1 4.3-.2 5.1-1.7 5.1-2.4 0-3.1 3.6-1.9 9 .6 2.5 1.1 6.2 1.1 8.2 0 2 .5 4 1.1 4.3.5.4 4.9-1.2 9.6-3.4 8.5-4.1 8.6-4.2 8-7.4-.4-2.5.1-3.9 2.4-6.7 3.3-3.9 3.6-5.6 1.2-8.2-.9-1-1.2-1.8-.6-1.8.5 0 1.9-1.8 3.2-4 2.1-3.8 2.1-4 .4-5.7-1.4-1.4-1.8-3-1.5-6.6.3-3.6 0-5.3-1.3-6.8-2-2.2-5.8-2.5-7.2-.7zM64.6 268.2c-4.6 12.7-1 26.8 9.5 37.7 4.3 4.5 13.1 10.1 15.8 10.1 2.6 0-3.2-24.8-8.3-35.4-3.3-6.7-11.8-16.6-14.5-16.6-.5 0-1.6 1.9-2.5 4.2zM342.9 307.4c-3.5 2.6-4.9 3.1-6.7 2.5-2-.7-2.7-.3-5.4 3.5-2.7 3.9-3.4 4.4-6.2 4-2.7-.4-3.4 0-5.9 3.6-1.6 2.3-3.6 4-4.5 3.9-3.5-.3-4.2.3-7.7 6.6-2 3.6-4.1 6.7-4.6 7.1-.5.3-.9 1.4-.9 2.5 0 1.7.8 1.9 9.8 1.9 10.2 0 12.2-.6 12.6-3.5.2-1.2 2-2.4 5.4-3.5 6.2-2 8.1-3.5 7.5-5.8-.3-1.3 1-2.4 4.9-4.2 4.4-2.1 5.4-3.1 5.6-5.5.2-1.8 1.8-4.4 3.8-6.4 3.3-3.4 4-5.4 2.8-8.5-1-2.7-5.8-1.9-10.5 1.8zM53.5 309.7c2.6 10.8 20.8 26.1 37.5 31.6 8.4 2.8 17 4.1 17 2.6 0-2.1-13.2-15.6-22-22.3C76.2 314 61.3 307 54.9 307c-1.8 0-2 .4-1.4 2.7zM298.9 310.9c-2.3 2.3-4.7 3.7-5.5 3.4-1.9-.7-4.1 1.3-6.4 5.8-1.6 3-2.3 3.6-4.4 3.2-2-.4-3.1.3-6.2 4.7-2 2.9-4.2 4.9-4.9 4.6-2.1-.8-4.1 1.5-8 8.9-2.1 3.8-4.4 7.8-5.3 8.8-3 3.4-.1 3.9 9.9 1.6 10.8-2.5 12.9-3.4 12.9-5.5 0-.9 2.4-2.6 5.8-4.1 6.2-2.7 7.4-3.9 6.8-6.6-.3-1.2.7-2.3 3.4-3.7 5.2-2.7 7.2-4.8 6.5-7.1-.4-1.3.4-3.4 2.4-6.1 3.6-4.8 4-9.2 1.2-10.8-3-1.6-3.7-1.3-8.2 2.9zM98.6 316.7c2.4 10.4 11.3 21.4 22.4 27.6 6.6 3.6 22.6 9.4 23.5 8.5.8-.7-5.1-11.4-10.1-18.4-6.6-9.4-15-15.1-27.3-18.8-8-2.4-9.3-2.2-8.5 1.1zM174 329.1c-16.1 6.5-17 27.2-1.5 35.3 2.8 1.5 3.1 1.5 4.6-.3 1.8-2.2 6.8-4.9 10.1-5.5 1.3-.3 2.4-.5 2.5-.5 0-.1-1.3-1.6-3-3.4-4.8-5.1-7-11.2-7.1-19.4-.1-7.8-.5-8.2-5.6-6.2zM186.3 335.4c.2 5.7.8 8.1 3 11.8 4 6.8 5.6 7.7 12.5 6.6 5.5-.8 7.6-1.7 21-8.8 4.5-2.3 7.8-3.3 11.3-3.4 2.7-.1 4.9-.4 4.9-.7 0-1.3-7.3-8.1-9.7-9-3.4-1.3-11.8-1.1-18.3.4-7.5 1.8-14.6 1.2-20.2-1.7l-4.7-2.5.2 7.3zM233.1 347.1c-7.6 2.6-10.4 4.7-12.6 9.4l-2.1 4.2 2.6 1.2c1.5.6 3.6 2 4.8 3.1 2.8 2.7 3.6 2.6 8.4-1.3 4.6-3.6 8.4-9.7 9.1-14.4.4-2.8.2-3.1-2.4-3.5-1.6-.3-5.1.3-7.8 1.3zM95.7 353.1c-8.6 2-16.1 7.8-19.6 15.3-3.8 8.1-3.8 8.1 3.2 8.2 7 .1 17.9 4 33.5 11.8 13.3 6.7 23.8 10.2 35.7 12.1 4.3.6 20.5.8 21.1.2.3-.2-.2-2.2-1-4.4s-1.6-5.5-1.9-7.4c-.5-3.8 1.7-13.4 3.5-15.6 1.4-1.7.3-2.8-4.2-4.1-1.9-.6-14.4-4.4-27.8-8.6-25.3-7.9-34-9.4-42.5-7.5zm8 9.6c-.5 2.6.5 3 2.3.8.7-.8 2.1-1.5 3.2-1.5 1.6 0 1.1.9-2.6 5.2-2.6 3-4.6 6.3-4.6 7.5 0 1.3-.6 2.3-1.4 2.3-2.2 0-2.6-1.2-1.6-5.6.4-2.1 1.1-5.5 1.4-7.5.4-2.3 1.2-3.6 2.2-3.6 1.1 0 1.4.7 1.1 2.4zm15.7 3.6c-.6 2-.5 2 1.7.6 1.3-.8 3.2-1.3 4.2-1.1 2 .4 2 .9-1.1 11.4-1.7 6.2-1.9 6.3-4.2 4.8-1.3-.8-1.3-1.5.3-5.8.9-2.8 1.7-5.3 1.7-5.7 0-.4-2 .9-4.4 2.9-4.2 3.4-8.6 4.8-8.6 2.6 0-.5 1.1-1.7 2.4-2.5 1.5-1 2.8-3.3 3.5-6 .9-3.6 1.4-4.2 3.1-3.8 1.6.4 1.9 1.1 1.4 2.6zm19 7.9c.4 2.7 1.2 4.8 1.7 4.8s.9-.4.9-.8c0-1.7 4.6-6.2 6.3-6.2 1.5 0 1.5.3-.3 3.2-4.6 7.8-6.1 11.2-5.7 12.9.5 2-.9 2.5-3.1 1-1.3-.8-2-2.8-2.1-6.4-.1-2.5-1.6-2.1-2.9.8-1.2 2.5-4.5 3.4-5.7 1.5-.3-.5 1.1-3.4 3.1-6.4 2.4-3.7 3.5-6.3 3.1-7.6-.4-1.7-.1-2.1 1.6-1.8 1.7.2 2.4 1.3 3.1 5zm19.3 6.6c-1 3.2-1.9 7.2-1.9 8.9 0 2.9-.3 3.2-2.5 3.1-3.3-.3-3.8-1.8-2.3-7.6.6-2.6 1.4-5.8 1.6-7.1.7-3.6 1-3.8 4.2-3.3l2.8.4-1.9 5.6zM298.7 354.6c-.1.1-3.6.4-7.7.8-12.8 1-26.2 4.4-43.6 11.1-16.4 6.4-15.8 5.9-13.7 9.8 2.5 4.7 2.3 15-.4 20.4l-2.1 4.2 3.6 1.2c10.5 3.5 39-4.8 55.2-16.1 8.9-6.1 24.3-11 33.2-10.5 2.7.2 4.6 0 4.4-.4-.2-.3-1.9-4-3.9-8.2-3.1-6.9-3.9-7.8-7.8-9.3-3.5-1.4-16.4-3.7-17.2-3zm1.1 11.3l2 4.9-2.1.6c-1.2.3-2.3.2-2.5-.2-1.4-3.9-3.1-5.7-5.5-6-3.2-.4-3.5 1.3-1.1 6 1.3 2.5 1.4 3.2.2 3.9-2.2 1.5-3.2.5-6-6.2l-2.7-6.4 2.2-.7c1.2-.3 4.7-.6 7.8-.7l5.6-.1 2.1 4.9zm-21.4-.3c1 2.6.7 3.2-1.7 3.8-3.2.8-3.6 6.6-.6 10.7 2.3 3.3 2.3 3.4-.7 4.3-3.3 1-6.8-3.5-6.7-8.5.1-4 0-4.1-2.8-3.7-2.8.4-3 .3-3.3-3.4-.1-.7 2.5-2 5.9-3 7.7-2.1 9.2-2.2 9.9-.2zm-19.5 9.7c1.3 5.8.6 11.7-1.4 11.7-.8 0-2 .3-2.9.6-1.3.5-1.4.1-.6-2.5.5-2 .5-4.3-.1-6.1l-1-2.9-4.6 2c-3.7 1.6-4.8 1.7-5.5.7-1.6-2.6-.7-3.7 4.5-5.6 2.8-1.1 5.9-2.2 6.7-2.5 3.1-1.1 3.7-.6 4.9 4.6zm-9.4 7.9c.3 1.3.6 5 .8 8.3l.2 5.9-3.1.2-3.1.1.5-7.6c.4-6.8 1.2-9 3.4-9.1.4 0 1 1 1.3 2.2zM196.5 366.1c-12.2 1.9-20.6 10.3-20.8 20.7-.2 20 28.1 29.3 43.5 14.1 7.2-7.2 8.1-16.3 2.5-24.8-4.7-7.1-15.8-11.5-25.2-10zM74.2 384.6c-5 3.5-1.3 9.7 9 14.8 3.9 2 7.6 3.6 8.2 3.6.7 0 1.1-1.3 1-3-.1-1.6.6-4.6 1.7-6.7 2.4-4.7 1.6-5.7-6.8-8.3-7.8-2.4-10.2-2.5-13.1-.4zM316.5 383.7c-1.1.2-4.1 1.1-6.8 1.9l-4.7 1.6 2.5 3c1.8 2.2 2.5 4.1 2.5 7.4 0 5.1.3 5.2 8.3 2.5 7-2.4 11.2-5.5 12.8-9.3 1.1-2.6 1-3.2-.9-5.1-2.1-2.1-8.6-3-13.7-2z"/></svg>